<svg width="34" height="34" viewBox="0 0 34 34" fill="none" xmlns="http://www.w3.org/2000/svg">
<g clip-path="url(#clip0_611_848)">
<mask id="mask0_611_848" style="mask-type:luminance" maskUnits="userSpaceOnUse" x="0" y="0" width="34" height="34">
<path d="M17 34C26.3888 34 34 26.3888 34 17C34 7.61116 26.3888 0 17 0C7.61116 0 0 7.61116 0 17C0 26.3888 7.61116 34 17 34Z" fill="white"/>
</mask>
<g mask="url(#mask0_611_848)">
<path d="M-8.55078 0H42.5512V34.068H-8.55078V0Z" fill="#F89939"/>
</g>
<mask id="mask1_611_848" style="mask-type:luminance" maskUnits="userSpaceOnUse" x="0" y="0" width="34" height="34">
<path d="M17 34C26.3888 34 34 26.3888 34 17C34 7.61116 26.3888 0 17 0C7.61116 0 0 7.61116 0 17C0 26.3888 7.61116 34 17 34Z" fill="white"/>
</mask>
<g mask="url(#mask1_611_848)">
<path d="M-8.55078 11.356H42.5512V22.712H-8.55078V11.356Z" fill="white"/>
</g>
<mask id="mask2_611_848" style="mask-type:luminance" maskUnits="userSpaceOnUse" x="0" y="0" width="34" height="34">
<path d="M17 34C26.3888 34 34 26.3888 34 17C34 7.61116 26.3888 0 17 0C7.61116 0 0 7.61116 0 17C0 26.3888 7.61116 34 17 34Z" fill="white"/>
</mask>
<g mask="url(#mask2_611_848)">
<path d="M-8.55078 22.7119H42.5512V34.0679H-8.55078V22.7119Z" fill="#1E8943"/>
</g>
<mask id="mask3_611_848" style="mask-type:luminance" maskUnits="userSpaceOnUse" x="0" y="0" width="34" height="34">
<path d="M17 34C26.3888 34 34 26.3888 34 17C34 7.61116 26.3888 0 17 0C7.61116 0 0 7.61116 0 17C0 26.3888 7.61116 34 17 34Z" fill="white"/>
</mask>
<g mask="url(#mask3_611_848)">
<path d="M17.0004 21.5765C19.5091 21.5765 21.5428 19.5428 21.5428 17.0341C21.5428 14.5254 19.5091 12.4917 17.0004 12.4917C14.4917 12.4917 12.458 14.5254 12.458 17.0341C12.458 19.5428 14.4917 21.5765 17.0004 21.5765Z" fill="#2A2C7A"/>
</g>
<mask id="mask4_611_848" style="mask-type:luminance" maskUnits="userSpaceOnUse" x="0" y="0" width="34" height="34">
<path d="M17 34C26.3888 34 34 26.3888 34 17C34 7.61116 26.3888 0 17 0C7.61116 0 0 7.61116 0 17C0 26.3888 7.61116 34 17 34Z" fill="white"/>
</mask>
<g mask="url(#mask4_611_848)">
<path d="M20.0277 14.4607C19.9582 14.379 19.8861 14.2994 19.8102 14.2235L18.2204 16.0061L17.5892 16.502C17.6175 16.5332 17.6435 16.5665 17.6665 16.602L18.3086 16.121L20.4414 15.0468C20.3877 14.9539 20.3303 14.8631 20.2693 14.7748C20.1825 14.8378 20.061 14.8209 19.9953 14.7354C19.9298 14.6499 19.9449 14.5285 20.0277 14.4607ZM16.507 13.2904C16.4 13.3044 16.3022 13.2305 16.2851 13.1246C16.0738 13.1628 15.8659 13.2182 15.6636 13.2902C15.7024 13.3907 15.6547 13.5041 15.5547 13.5454C15.4549 13.5868 15.3408 13.5405 15.2972 13.442C15.2004 13.4882 15.1055 13.5383 15.0127 13.5923L16.3229 15.589L16.6383 16.3266C16.6758 16.3072 16.7149 16.2909 16.755 16.2778L16.4567 15.5335L15.971 13.1948L16.7199 15.4631L16.8336 16.2567C16.875 16.2481 16.9169 16.2429 16.9591 16.241L16.8635 15.444L16.9997 13.0593C16.8913 13.0593 16.7843 13.0649 16.6781 13.0734C16.6834 13.1247 16.6685 13.1761 16.6365 13.2166C16.6046 13.2571 16.5581 13.2836 16.507 13.2904ZM19.2983 14.0384C19.2573 14.0068 19.2302 13.9606 19.2228 13.9094C19.2155 13.8582 19.2283 13.8062 19.2588 13.7643C19.1705 13.7033 19.0797 13.6459 18.9868 13.5923L17.9126 15.7251L17.4316 16.3672C17.467 16.3903 17.5004 16.4161 17.5317 16.4444L18.0275 15.8133L19.8102 14.2235C19.7343 14.1476 19.6547 14.0755 19.5729 14.006C19.5052 14.0888 19.3837 14.1039 19.2983 14.0384ZM18.0275 18.2545L17.5317 17.6234C17.5005 17.6518 17.467 17.6776 17.4317 17.7006L17.9126 18.3427L18.9868 20.4755C19.0798 20.4219 19.1705 20.3645 19.2588 20.3035C19.2284 20.2616 19.2155 20.2096 19.2229 20.1584C19.2303 20.1072 19.2573 20.061 19.2983 20.0294C19.3837 19.9639 19.5052 19.979 19.5729 20.0619C19.6547 19.9923 19.7343 19.9202 19.8102 19.8443L18.0275 18.2545ZM18.5896 17.1702L17.7927 17.0746C17.7908 17.1167 17.7856 17.1587 17.7771 17.2L18.5706 17.3138L20.8389 18.0627L18.5002 17.577L17.7559 17.2787C17.7428 17.3188 17.7265 17.3579 17.7071 17.3954L18.4447 17.7108L20.4414 19.021C20.4953 18.9282 20.5455 18.8333 20.5918 18.7364C20.4933 18.6928 20.4469 18.5787 20.4882 18.479C20.5296 18.379 20.6431 18.3312 20.7435 18.3701C20.8155 18.1677 20.8708 17.9599 20.909 17.7485C20.8032 17.7315 20.7293 17.6337 20.7433 17.5268C20.7501 17.4756 20.7766 17.4292 20.8171 17.3972C20.8576 17.3653 20.9089 17.3503 20.9602 17.3556C20.9688 17.2494 20.9744 17.1424 20.9744 17.034L18.5896 17.1702ZM20.7433 16.5412C20.7293 16.4342 20.8032 16.3364 20.909 16.3194C20.8708 16.108 20.8154 15.9001 20.7435 15.6978C20.6431 15.7366 20.5296 15.6889 20.4882 15.5889C20.4468 15.4891 20.4932 15.375 20.5917 15.3314C20.5455 15.2346 20.4953 15.1397 20.4414 15.0469L18.4447 16.3571L17.7071 16.6725C17.7265 16.71 17.7428 16.749 17.7559 16.7892L18.5002 16.4909L20.8389 16.0052L18.5706 16.7541L17.7771 16.8678C17.7857 16.9085 17.7905 16.9506 17.7927 16.9933L18.5896 16.8977L20.9743 17.0339C20.9743 16.9255 20.9688 16.8185 20.9602 16.7123C20.9089 16.7176 20.8575 16.7027 20.817 16.6707C20.7765 16.6388 20.7501 16.5923 20.7433 16.5412Z" fill="white"/>
<path d="M18.3088 17.9468L17.6667 17.4659C17.6436 17.5012 17.6178 17.5346 17.5895 17.5659L18.2206 18.0617L19.8104 19.8444C19.8863 19.7685 19.9584 19.6889 20.028 19.6071C19.9451 19.5394 19.93 19.4179 19.9955 19.3325C20.0613 19.2469 20.1828 19.23 20.2696 19.293C20.3306 19.2047 20.388 19.1139 20.4416 19.021L18.3088 17.9468ZM17.0406 16.241C17.0834 16.2432 17.1253 16.248 17.166 16.2566L17.2798 15.463L18.0287 13.1947L17.543 15.5334L17.2448 16.2778C17.2852 16.2909 17.3241 16.3074 17.3614 16.3265L17.6768 15.5889L18.987 13.5922C18.8942 13.5383 18.7993 13.4882 18.7025 13.442C18.6589 13.5405 18.5448 13.5868 18.445 13.5454C18.345 13.5041 18.2973 13.3907 18.3361 13.2902C18.1338 13.2182 17.9259 13.1628 17.7146 13.1246C17.6976 13.2305 17.5997 13.3044 17.4928 13.2904C17.4416 13.2836 17.3952 13.2571 17.3632 13.2166C17.3313 13.1761 17.3164 13.1247 17.3216 13.0734C17.2154 13.0649 17.1084 13.0593 17 13.0593L17.1363 15.444L17.0406 16.241ZM15.9721 15.8133L16.468 16.4445C16.4993 16.4161 16.5327 16.3902 16.568 16.3672L16.0871 15.7251L15.0129 13.5922C14.9199 13.6459 14.8292 13.7033 14.7409 13.7643C14.7713 13.8062 14.7842 13.8582 14.7768 13.9094C14.7695 13.9606 14.7424 14.0068 14.7014 14.0384C14.616 14.1039 14.4945 14.0888 14.4268 14.0059C14.345 14.0755 14.2654 14.1476 14.1895 14.2235L15.9721 15.8133ZM15.6912 16.121L16.3333 16.602C16.3563 16.5666 16.3822 16.5332 16.4105 16.502L15.7794 16.0061L14.1896 14.2235C14.1137 14.2993 14.0415 14.379 13.972 14.4607C14.0549 14.5285 14.07 14.6499 14.0045 14.7354C13.9729 14.7764 13.9267 14.8034 13.8755 14.8108C13.8243 14.8182 13.7723 14.8053 13.7304 14.7749C13.6694 14.8632 13.612 14.9539 13.5583 15.0469L15.6912 16.121ZM16.9594 17.8268C16.9172 17.825 16.8753 17.8198 16.8339 17.8112L16.7202 18.6048L15.9713 20.873L16.457 18.5344L16.7553 17.7901C16.7151 17.777 16.6761 17.7606 16.6386 17.7413L16.3232 18.4789L15.013 20.4756C15.1058 20.5295 15.2007 20.5797 15.2975 20.6259C15.3411 20.5274 15.4552 20.4811 15.555 20.5224C15.655 20.5638 15.7027 20.6773 15.6639 20.7777C15.8641 20.8491 16.0719 20.9044 16.2854 20.9432C16.3025 20.8374 16.4003 20.7635 16.5072 20.7775C16.5584 20.7843 16.6048 20.8107 16.6368 20.8512C16.6687 20.8917 16.6837 20.9431 16.6784 20.9944C16.7846 21.003 16.8916 21.0085 17 21.0085L16.8638 18.6238L16.9594 17.8268ZM15.0129 20.4756L16.0871 18.3428L16.5681 17.7007C16.5327 17.6776 16.4993 17.6518 16.4681 17.6235L15.9721 18.2545L14.1896 19.8444C14.2657 19.92 14.3448 19.9926 14.4268 20.0619C14.4945 19.979 14.616 19.964 14.7015 20.0295C14.787 20.0952 14.8039 20.2167 14.7409 20.3035C14.8292 20.3645 14.92 20.4219 15.0129 20.4756ZM17.4928 20.7775C17.5997 20.7635 17.6975 20.8374 17.7145 20.9432C17.9259 20.905 18.1337 20.8496 18.3361 20.7777C18.2972 20.6773 18.345 20.5638 18.445 20.5224C18.5448 20.4811 18.6588 20.5274 18.7024 20.6259C18.7993 20.5797 18.8942 20.5295 18.987 20.4756L17.6768 18.4789L17.3614 17.7413C17.3239 17.7607 17.2849 17.777 17.2447 17.7901L17.543 18.5344L18.0287 20.8731L17.2798 18.6048L17.166 17.8113C17.1247 17.8198 17.0828 17.825 17.0406 17.8269L17.1362 18.6238L17 21.0085C17.1084 21.0085 17.2154 21.003 17.3216 20.9944C17.3163 20.9431 17.3313 20.8918 17.3632 20.8513C17.3952 20.8108 17.4416 20.7843 17.4928 20.7775ZM13.408 18.7364C13.4542 18.8332 13.5044 18.9282 13.5583 19.0209L15.555 17.7108L16.2926 17.3954C16.2733 17.3578 16.257 17.3188 16.2438 17.2787L15.4995 17.5769L13.1608 18.0627L15.4291 17.3137L16.2227 17.2C16.2141 17.1586 16.2089 17.1167 16.2071 17.0745L15.41 17.1701L13.0254 17.0339C13.0254 17.1423 13.031 17.2494 13.0395 17.3555C13.1458 17.3447 13.2423 17.42 13.2565 17.5267C13.2705 17.6337 13.1965 17.7315 13.0907 17.7485C13.1289 17.9598 13.1843 18.1677 13.2563 18.37C13.3567 18.3312 13.4702 18.3789 13.5115 18.4789C13.5529 18.5788 13.5065 18.6928 13.408 18.7364Z" fill="white"/>
<path d="M16.4106 17.5658C16.3822 17.5346 16.3564 17.5011 16.3333 17.4658L15.6913 17.9468L13.5584 19.021C13.6121 19.1139 13.6695 19.2046 13.7305 19.2929C13.7723 19.2625 13.8243 19.2496 13.8755 19.257C13.9267 19.2644 13.973 19.2915 14.0045 19.3324C14.07 19.4179 14.0549 19.5394 13.9721 19.6071C14.0416 19.6889 14.1137 19.7685 14.1896 19.8443L15.7794 18.0617L16.4106 17.5658ZM16.2071 16.9933C16.2093 16.9505 16.2141 16.9085 16.2227 16.8678L15.4291 16.754L13.1608 16.0051L15.4995 16.4909L16.2439 16.7892C16.257 16.7487 16.2735 16.7098 16.2926 16.6724L15.555 16.357L13.5583 15.0469C13.5044 15.1397 13.4543 15.2346 13.408 15.3314C13.5065 15.375 13.5529 15.489 13.5115 15.5889C13.4702 15.6889 13.3567 15.7366 13.2563 15.6978C13.1848 15.898 13.1295 16.1058 13.0907 16.3193C13.1965 16.3364 13.2704 16.4341 13.2565 16.5411C13.2423 16.6478 13.1458 16.7231 13.0395 16.7123C13.031 16.8185 13.0254 16.9255 13.0254 17.0339L15.41 16.8977L16.2071 16.9933Z" fill="white"/>
</g>
</g>
<defs>
<clipPath id="clip0_611_848">
<rect width="34" height="34" fill="white"/>
</clipPath>
</defs>
</svg>
