<svg width="15" height="15" viewBox="0 0 15 15" fill="none" xmlns="http://www.w3.org/2000/svg">
<circle cx="7.61543" cy="6.00679" r="3.10078" fill="#EFAE02"/>
<path d="M7.50031 13.9311C8.48797 13.9311 12.4616 9.8197 12.4616 6.09876C12.4616 3.31954 10.2336 1.0686 7.50031 1.0686C4.76703 1.0686 2.53906 3.31954 2.53906 6.09876C2.53906 9.8197 6.51266 13.9311 7.50031 13.9311ZM4.79 5.66235C4.79 5.29485 4.85891 4.92735 4.99672 4.60579C5.08859 4.39907 5.36422 4.3761 5.47906 4.55985C5.66281 4.85845 6.00734 5.06517 6.39781 5.06517C6.995 5.06517 7.50031 4.55985 7.50031 3.96267C7.50031 3.71001 7.43141 3.50329 7.29359 3.31954C7.15578 3.15876 7.27063 2.9061 7.50031 2.9061C8.99328 2.9061 10.2106 4.14642 10.2106 5.66235C10.2106 7.17829 8.99328 8.4186 7.50031 8.4186C6.00734 8.4186 4.79 7.17829 4.79 5.66235Z" fill="black"/>
</svg>
