<svg width="38" height="38" viewBox="0 0 38 38" fill="none" xmlns="http://www.w3.org/2000/svg">
<g clip-path="url(#clip0_561_1197)">
<path d="M36.9361 13.7824L25.3124 12.0934L20.114 1.56032C19.6593 0.63897 18.3411 0.638524 17.8861 1.56032L12.6878 12.0934L1.064 13.7824C0.0474268 13.9301 -0.360851 15.1835 0.375548 15.9012L8.78654 24.1L6.80089 35.6768C6.7617 35.9053 6.78721 36.1401 6.87454 36.3549C6.96187 36.5696 7.10753 36.7556 7.29506 36.8918C7.48259 37.0281 7.70449 37.1091 7.93568 37.1258C8.16687 37.1425 8.39813 37.0942 8.60329 36.9863L19 31.5206C30.3188 37.4711 29.5414 37.1291 29.9747 37.1291C30.7403 37.1291 31.3298 36.4389 31.1991 35.6768L29.2135 24.1L37.6246 15.9012C38.3602 15.1841 37.9535 13.9303 36.9361 13.7824Z" fill="#F7AC16"/>
<path d="M19.0001 0.867432C18.7683 0.867444 18.5411 0.9323 18.3442 1.05467C18.1473 1.17704 17.9886 1.35204 17.886 1.55989L12.6877 12.0929L1.064 13.7819C0.0474268 13.9297 -0.360851 15.1831 0.375548 15.9008L8.78654 24.0996L6.80089 35.6764C6.7617 35.9049 6.78721 36.1397 6.87454 36.3544C6.96187 36.5691 7.10753 36.7551 7.29506 36.8914C7.48258 37.0276 7.70449 37.1087 7.93568 37.1254C8.16687 37.1421 8.39813 37.0938 8.60329 36.9859L19 31.5202H19.0001V0.867432Z" fill="#F2D422"/>
<path d="M1.064 13.7818C0.0474268 13.9296 -0.360851 15.183 0.375548 15.9007L8.78654 24.0995L6.80089 35.6763C6.7617 35.9048 6.78721 36.1396 6.87454 36.3543C6.96187 36.569 7.10753 36.755 7.29506 36.8913C7.48258 37.0275 7.70449 37.1086 7.93568 37.1253C8.16687 37.142 8.39813 37.0937 8.60329 36.9858L19 31.5201C30.3188 37.4706 29.5414 37.1286 29.9747 37.1286C30.237 37.1287 30.4927 37.0456 30.7049 36.8913L12.6877 12.0928L1.064 13.7818Z" fill="#F7AC16"/>
<path d="M13.2524 22.6697C4.24264 13.8873 4.62991 14.358 4.50901 13.9025C4.45981 13.7196 4.44971 13.5067 4.50322 13.2822L1.064 13.7819C0.0474268 13.9297 -0.360851 15.1831 0.375548 15.9008L8.78654 24.0996L6.80089 35.6765C6.7617 35.9049 6.78721 36.1398 6.87454 36.3545C6.96187 36.5692 7.10753 36.7552 7.29506 36.8915C7.48258 37.0277 7.70449 37.1088 7.93568 37.1255C8.16687 37.1422 8.39813 37.0939 8.60329 36.986L11.6601 35.3789C11.5043 35.2387 11.3865 35.0614 11.3177 34.8634C11.2489 34.6653 11.2313 34.4531 11.2667 34.2465L13.2524 22.6697Z" fill="#F48B19"/>
<path d="M0.375853 15.9009L8.78684 24.0997L6.80119 35.6765C6.762 35.9049 6.78751 36.1398 6.87484 36.3545C6.96217 36.5692 7.10784 36.7552 7.29536 36.8915C7.48289 37.0277 7.70479 37.1088 7.93599 37.1255C8.16718 37.1422 8.39843 37.0939 8.60359 36.986L19.0003 31.5203C30.3191 37.4708 29.5417 37.1288 29.975 37.1288C30.7406 37.1288 31.3301 36.4386 31.1994 35.6765L29.2138 24.0997L0.0613881 14.6274C-0.083858 15.1481 0.0615365 15.5947 0.375853 15.9009Z" fill="#F2D422"/>
<path d="M0.375853 15.9009L8.78684 24.0997L6.80119 35.6765C6.762 35.9049 6.78751 36.1398 6.87484 36.3545C6.96217 36.5692 7.10784 36.7552 7.29536 36.8915C7.48289 37.0277 7.70479 37.1088 7.93599 37.1255C8.16718 37.1422 8.39843 37.0939 8.60359 36.986L11.6604 35.3789C11.5046 35.2387 11.3868 35.0614 11.318 34.8634C11.2492 34.6653 11.2316 34.4531 11.267 34.2465L13.2527 22.6697L7.47265 17.0355L0.0613881 14.6274C-0.083858 15.1481 0.0615365 15.5947 0.375853 15.9009Z" fill="#EFB616"/>
<path d="M6.80109 35.6764C6.7619 35.9049 6.78741 36.1397 6.87474 36.3544C6.96207 36.5691 7.10773 36.7551 7.29526 36.8914C7.48278 37.0276 7.70469 37.1087 7.93588 37.1254C8.16707 37.1421 8.39833 37.0938 8.60349 36.9859L19.0002 31.5202C30.319 37.4707 29.5416 37.1287 29.9749 37.1287C30.7405 37.1287 31.33 36.4385 31.1993 35.6764L29.2137 24.0996L37.6248 15.9008C37.7907 15.739 37.9081 15.534 37.9636 15.309C38.0192 15.084 38.0107 14.8479 37.9391 14.6274L8.78674 24.0996L6.80109 35.6764Z" fill="#F7AC16"/>
<path d="M6.80109 35.6764C6.7619 35.9048 6.78741 36.1397 6.87474 36.3544C6.96207 36.5691 7.10773 36.7551 7.29526 36.8914C7.48278 37.0276 7.70469 37.1087 7.93588 37.1254C8.16707 37.1421 8.39833 37.0938 8.60349 36.9859L11.6603 35.3788C11.5045 35.2386 11.3867 35.0613 11.3179 34.8633C11.2491 34.6652 11.2315 34.453 11.2669 34.2464L13.2526 22.6696L13.2363 22.6538L8.78674 24.0996L6.80109 35.6764Z" fill="#F48B19"/>
<path d="M8.60318 36.986L18.9998 31.5203C30.3186 37.4708 29.5412 37.1288 29.9745 37.1288C30.7401 37.1288 31.3296 36.4385 31.1989 35.6765L29.2134 24.0997L37.6244 15.9009C38.3599 15.1837 37.9533 13.9299 36.9359 13.782L25.3121 12.093L7.29492 36.8915C7.48246 37.0277 7.70437 37.1088 7.93556 37.1255C8.16676 37.1422 8.39801 37.0939 8.60318 36.986Z" fill="#F2D422"/>
<path d="M37.9388 14.6274L18.9998 20.7811L7.29492 36.8915C7.48245 37.0277 7.70434 37.1088 7.93553 37.1255C8.16671 37.1422 8.39795 37.0939 8.6031 36.986L18.9998 31.5203C30.3186 37.4708 29.5412 37.1288 29.9745 37.1288C30.7401 37.1288 31.3296 36.4386 31.1989 35.6765L29.2134 24.0997L37.6244 15.9009C37.7904 15.7391 37.9078 15.5341 37.9633 15.309C38.0189 15.084 38.0104 14.8479 37.9388 14.6274Z" fill="#F7AC16"/>
<path d="M29.2134 24.0996L18.9998 20.781L7.29492 36.8914C7.48245 37.0277 7.70434 37.1087 7.93553 37.1254C8.16671 37.1421 8.39795 37.0938 8.6031 36.9859L18.9998 31.5202C30.3186 37.4707 29.5412 37.1287 29.9745 37.1287C30.7401 37.1287 31.3296 36.4385 31.1989 35.6764L29.2134 24.0996Z" fill="#F2D422"/>
<path d="M7.29492 36.8914C7.48245 37.0277 7.70434 37.1087 7.93553 37.1254C8.16671 37.1421 8.39795 37.0938 8.6031 36.9859L18.9998 31.5202C30.3186 37.4707 29.5412 37.1287 29.9745 37.1287C30.2368 37.1288 30.4925 37.0457 30.7047 36.8914L18.9998 20.781L7.29492 36.8914Z" fill="#F7AC16"/>
<path d="M18.9999 20.7812L18.9998 20.781L7.29492 36.8915C7.48245 37.0277 7.70434 37.1087 7.93553 37.1254C8.16671 37.1421 8.39795 37.0938 8.6031 36.9859L18.9998 31.5202H18.9999V20.7812Z" fill="#F2D422"/>
<path d="M11.9 30.5532L7.29492 36.8915C7.48245 37.0277 7.70434 37.1088 7.93553 37.1255C8.16671 37.1422 8.39795 37.0939 8.6031 36.986L11.6599 35.3789C11.5041 35.2387 11.3863 35.0614 11.3175 34.8633C11.2487 34.6653 11.2312 34.4531 11.2665 34.2465L11.9 30.5532Z" fill="#EFB616"/>
</g>
<defs>
<clipPath id="clip0_561_1197">
<rect width="38" height="38" fill="white"/>
</clipPath>
</defs>
</svg>
