<svg width="62" height="62" viewBox="0 0 62 62" fill="none" xmlns="http://www.w3.org/2000/svg">
<g clip-path="url(#clip0_643_478)">
<path d="M30.9973 61.9999C24.4653 61.9955 18.0142 59.9073 12.7561 56.0266C9.43778 53.5775 6.61165 50.4629 4.51604 46.9095C1.13743 41.1806 -0.223804 34.3359 0.643314 27.7462C0.652034 27.6803 0.660874 27.6144 0.669957 27.5487C1.12265 24.2768 2.10542 21.0754 3.59854 18.1276C6.02732 13.3323 9.74526 9.2084 14.2554 6.28551C16.4803 4.84363 18.8915 3.68864 21.413 2.86827C24.0442 0.964608 27.1154 0 30.5466 0C33.4694 0 36.1733 0.771928 38.588 2.29483C44.7306 3.84099 50.302 7.32448 54.4076 12.1442C56.2183 14.2699 57.7388 16.6441 58.8911 19.1881C61.0937 24.0509 62.0212 29.5086 61.4447 34.8218C60.8851 39.9802 58.9841 45.0049 55.9655 49.227C55.3652 50.0662 54.7213 50.8735 54.0367 51.6456C50.0012 56.1941 44.6113 59.5109 38.7261 61.045C36.2186 61.6989 33.5869 62.0017 30.9973 61.9999Z" fill="white"/>
<path d="M56.2488 46.1339C56.4824 45.7387 56.706 45.3377 56.9194 44.9312C57.0686 44.6498 57.2126 44.3655 57.3511 44.0786C57.4054 43.9673 57.4569 43.856 57.5113 43.7447C58.4059 41.9055 59.0554 39.9185 59.5031 37.9257C59.9707 35.8445 60.1528 33.7686 60.1465 31.6765C60.1429 30.5287 60.0828 29.3759 59.982 28.2147C59.9765 28.1524 59.9684 28.0899 59.9603 28.0274C59.612 25.29 58.8628 22.6187 57.7367 20.0994C57.732 20.0843 57.7256 20.0697 57.7177 20.056C57.7068 20.026 57.6932 19.9989 57.6797 19.9691C57.6742 19.9556 57.6688 19.9447 57.6633 19.9311C57.184 18.8772 56.6409 17.8536 56.037 16.8658C54.6675 14.6264 52.9988 12.5702 51.0766 10.7813L50.9708 10.6836C49.543 9.36171 47.948 8.17305 46.2955 7.1703C43.6532 5.56698 40.7229 4.38656 37.72 3.70788C34.4954 2.9796 31.1717 2.7965 27.8867 3.16617C24.6913 3.52683 21.5752 4.42531 18.6671 5.79381C18.5276 5.85947 18.3891 5.92733 18.2517 5.99739C16.846 6.69189 15.4994 7.50005 14.2253 8.41381L14.0543 8.53601C13.5901 8.8751 13.1356 9.2273 12.6914 9.59217C10.5597 11.3461 8.66111 13.4274 7.11737 15.7038C5.92169 17.4255 4.94643 19.321 4.17971 21.2697C3.14788 23.8885 2.51523 26.6658 2.29821 29.4718C2.28731 29.6157 2.27653 29.7569 2.27108 29.9008C2.22542 30.6067 2.20708 31.314 2.2161 32.0213C2.25364 35.1862 2.81702 38.357 3.89741 41.3339C3.91909 41.3936 3.94089 41.4561 3.96523 41.5158C4.0087 41.6352 4.05485 41.7547 4.10365 41.8741C4.63908 43.2813 5.2883 44.6424 6.04486 45.944L18.9061 46.134L29.3329 57.1986L39.0317 49.3528L56.2488 46.1339Z" fill="#7EA8C5"/>
<path d="M9.19267 17.4002C6.42879 21.2963 4.0642 25.5019 2.26953 29.9274C2.27498 29.7835 2.28758 29.6155 2.29835 29.4716C4.07679 25.1765 6.39076 21.1144 9.08137 17.3215C9.36651 16.9204 9.65431 16.5213 9.94473 16.1241C11.6524 13.7702 13.4041 11.2795 14.1018 8.50205L14.2645 8.38579C13.5884 11.2528 11.8019 13.7945 10.0534 16.2028C9.76378 16.6 9.47688 16.9991 9.19267 17.4002ZM7.8513 29.5213C7.0015 32.5703 6.12179 35.7252 5.08464 38.7579C4.77509 39.662 4.42764 40.634 3.99044 41.5924C3.96598 41.5327 3.9443 41.4702 3.92263 41.4105C4.33257 40.4982 4.66379 39.5778 4.95699 38.7144C5.99148 35.6845 6.87107 32.5324 7.72087 29.4859C9.37166 23.559 11.0767 17.4312 14.0252 11.9304C15.3365 9.48422 16.7898 7.42699 18.3237 5.96089C18.4621 5.89028 18.5667 5.84099 18.7052 5.77584C17.0572 7.26362 15.5401 9.38915 14.1446 11.9956C11.2044 17.4828 9.49931 23.6025 7.8513 29.5213ZM26.5717 6.57259C26.3301 7.91384 25.4856 9.04061 24.6413 10.0804C23.3163 11.7122 21.891 13.3005 20.509 14.8399C18.3479 17.2481 16.1106 19.7405 14.2319 22.4393C9.1573 29.7264 6.63782 38.7514 7.13193 47.6133C7.0812 47.5413 7.03234 47.4679 6.98539 47.3934C6.54287 38.5721 9.07326 29.6126 14.1206 22.3607C16.0049 19.6565 18.2447 17.1614 20.4086 14.7477C21.7879 13.2137 23.2133 11.6227 24.5356 9.99637C25.369 8.97012 26.1999 7.85692 26.4361 6.54825C26.6234 5.5111 26.2977 4.24591 25.4586 3.58346L25.6296 3.55088C26.4441 4.26213 26.7589 5.52999 26.5717 6.57259ZM25.5182 53.4506C25.7816 54.4877 26.0015 55.5059 25.8385 56.5295C25.6376 57.7621 24.9262 58.7395 23.9733 59.4861C23.9162 59.4726 23.862 59.459 23.8049 59.4455C24.7743 58.7097 25.5045 57.7377 25.7028 56.5078C25.8657 55.5113 25.6457 54.5068 25.3878 53.4832C24.8421 51.3247 24.0955 48.8378 22.6863 46.7417C21.9994 45.7208 21.1522 44.7841 20.3297 43.8801C19.1487 42.5742 17.9268 41.2275 17.1748 39.6066C15.7657 36.5739 16.0698 32.6806 18.0083 28.9202C19.4311 26.1618 21.5135 23.7699 23.5226 21.4538C23.9081 21.014 24.2909 20.5741 24.6684 20.1316C27.9401 16.3033 30.951 12.1982 33.6145 7.92474L33.8996 7.46865C34.7494 6.10294 35.6128 4.7101 36.6446 3.50195C36.6962 3.51007 36.7451 3.5183 36.7939 3.52908V3.53187C35.7486 4.74825 34.8744 6.15732 34.0137 7.54192L33.7312 7.99813C31.0623 12.2744 28.0486 16.3876 24.7716 20.2186C24.3914 20.6639 24.0086 21.1037 23.6258 21.5436C21.6195 23.8514 19.5452 26.2379 18.1305 28.9827C16.211 32.705 15.9069 36.555 17.2969 39.5497C18.0409 41.1516 19.2572 42.4928 20.4329 43.7879C21.2555 44.6974 22.1053 45.6368 22.7977 46.6659C24.2204 48.7808 24.9725 51.2812 25.5182 53.4506Z" fill="#FADED3"/>
<path d="M44.3445 27.4977C42.1426 29.5829 42.4549 33.0743 42.7317 36.156L42.7481 36.3542C42.9925 39.0938 43.0766 42.6178 41.5454 45.5583C40.1879 48.1674 37.0031 50.4725 33.7858 49.6092C31.3477 48.9522 29.401 46.4326 29.0562 43.4813C28.706 40.484 29.8435 37.5381 30.7314 35.5859C33.2455 30.0472 37.223 24.8588 42.5581 20.1699C43.0576 19.7274 43.5789 19.2875 44.0786 18.8586C46.3809 16.8984 48.762 14.8729 50.2906 12.2474C50.577 11.7559 50.823 11.242 51.0263 10.7107L51.1322 10.8084C50.9313 11.3293 50.6889 11.8332 50.4073 12.3152C48.8678 14.9597 46.4786 16.996 44.1682 18.9616C43.6659 19.3906 43.1474 19.8304 42.6477 20.2703C37.329 24.9484 33.3595 30.1206 30.8536 35.6429C29.9738 37.5814 28.8444 40.5001 29.192 43.4676C29.5313 46.3646 31.4346 48.8353 33.8211 49.4761C36.9761 50.3259 40.0928 48.0588 41.426 45.4958C42.941 42.5853 42.8568 39.0883 42.6124 36.3678L42.5961 36.1696C42.3165 33.0581 42.0015 29.5313 44.2522 27.3999C45.4414 26.2732 47.0705 25.8605 48.6424 25.4614C49.6579 25.2034 50.7058 24.9374 51.6398 24.4839C52.8398 23.9002 53.8824 22.9879 54.8897 22.1055C55.7829 21.3263 56.6925 20.5308 57.7188 19.958C57.7243 19.9715 57.7297 19.9824 57.7351 19.996C57.7486 20.0259 57.7622 20.053 57.7731 20.0828C56.7631 20.6503 55.8617 21.4376 54.9793 22.2087C53.9639 23.0965 52.9159 24.0142 51.6995 24.6061C50.752 25.065 49.6985 25.3337 48.675 25.5917C47.0487 26.0043 45.5092 26.3954 44.3445 27.4977ZM48.9636 41.4293C48.4179 43.2837 48.6622 44.9589 49.6153 45.9118C50.4732 46.767 51.9312 47.044 53.3295 46.6177C54.6056 46.2295 55.7024 45.3633 56.6989 44.4864C56.9763 44.2411 57.2506 43.9922 57.5215 43.7398C57.4673 43.8511 57.4156 43.9624 57.3613 44.0737C57.174 44.2474 56.9812 44.4184 56.7885 44.5896C55.7811 45.4774 54.6707 46.3517 53.3703 46.748C51.9232 47.1879 50.4109 46.8974 49.5203 46.0069C48.5293 45.0185 48.2741 43.2918 48.8334 41.3913C49.9059 37.745 52.8109 35.0597 55.621 32.4642C57.1442 31.0551 58.6971 29.6215 59.9705 28.0224C59.9787 28.0848 59.9869 28.1473 59.9923 28.2098C58.7298 29.7764 57.2067 31.18 55.7134 32.5619C52.9167 35.1467 50.0252 37.8183 48.9636 41.4293Z" fill="#FADED3"/>
<path d="M35.6697 37.3223L35.3729 33.0365L35.3295 32.2438L32.0008 32.0835V31.9668L30.8007 32.0265L29.598 31.9668V32.0835L26.2721 32.2438L26.1906 33.7424L25.9951 37.329L30.8007 44.9205L35.6697 37.3223Z" fill="#FF8476"/>
<path d="M35.3727 33.0365C34.8134 33.7289 34.0776 34.2773 33.2522 34.6058C32.3915 34.9479 31.4549 35.0538 30.529 35.0619C29.4919 35.07 28.4357 34.9561 27.4801 34.5542C27.0131 34.356 26.5678 34.0818 26.1904 33.7424L26.2718 32.2438L29.5977 32.0835V31.9668L30.8004 32.0265L32.0005 31.9668V32.0835L35.3291 32.2438L35.3727 33.0365Z" fill="#331510"/>
<path d="M27.258 60.111C28.5663 60.2891 29.8853 60.378 31.2057 60.3771C33.9289 60.3771 36.5679 60.0052 39.0711 59.3046L43.3822 51.701L52.2249 48.1589L54.7025 46.4915L52.4502 44.6809L41.2486 38.8249L41.1536 38.7842C41.1536 38.7842 40.3906 35.2492 39.4187 34.3478C38.4494 33.4464 35.4224 33.7837 35.4224 33.7837L35.5389 35.4556C31.1703 38.7137 26.1096 36.0122 26.1096 36.0122L26.1661 34.1979C20.7604 33.8503 20.9807 38.5751 20.9807 38.5751C20.9508 38.5806 20.9182 38.5887 20.8857 38.5942L11.5656 45.7364L7.26367 46.1719L13.4674 48.7105L15.2117 53.8285L22.4872 50.9597L27.258 60.111Z" fill="#331510"/>
<path d="M6.04492 45.9439C6.04492 45.9439 6.71548 47.0878 7.08013 47.6251C9.31393 50.9168 12.1964 53.7019 15.5626 55.8424C18.9213 57.9763 22.6827 59.3973 26.6134 60.017C26.8278 60.0508 27.0425 60.082 27.2576 60.1109C27.092 58.0529 26.7661 56.0084 26.3127 53.9938C25.661 51.0806 24.7489 48.2298 23.6927 45.4387C23.1606 44.0377 22.5932 42.6476 21.9986 41.271C21.7054 40.5977 21.3877 39.3895 20.8854 38.594C20.8855 38.5942 11.2081 40.399 6.04492 45.9439ZM41.2483 38.8251C40.48 40.5763 40.3117 42.8134 40.0103 44.6787C39.644 46.939 39.3803 49.2147 39.2202 51.4989C39.0392 54.0613 38.9884 56.6313 39.0682 59.1988C39.0682 59.2342 39.0708 59.2694 39.0708 59.3047C42.7384 58.2846 46.1944 56.5347 49.1886 54.1841C52.0152 51.965 54.4156 49.2243 56.249 46.1339C56.249 46.1339 50.9129 40.813 41.2483 38.8251Z" fill="#D3542B"/>
<path d="M23.9178 59.5274C23.9049 59.5274 23.8923 59.5238 23.8815 59.5169C23.8706 59.51 23.8619 59.5003 23.8564 59.4887C22.3106 56.2252 14.6972 47.5814 14.6206 47.4944C14.6135 47.4864 14.6084 47.4769 14.6057 47.4666C14.603 47.4563 14.6028 47.4456 14.605 47.4352C14.6072 47.4248 14.6119 47.415 14.6186 47.4068C14.6252 47.3985 14.6338 47.3919 14.6435 47.3875L20.3643 44.7995L15.0455 40.6401C15.0321 40.6288 15.0236 40.6127 15.0218 40.5952C15.02 40.5777 15.025 40.5602 15.0359 40.5463C15.0467 40.5325 15.0625 40.5234 15.0799 40.5209C15.0973 40.5185 15.115 40.5229 15.1292 40.5332L20.5362 44.7616C20.5454 44.7688 20.5526 44.7782 20.5571 44.789C20.5616 44.7998 20.5632 44.8115 20.5618 44.8231C20.5604 44.8347 20.5561 44.8458 20.5492 44.8552C20.5423 44.8646 20.5331 44.8721 20.5224 44.8769L14.7831 47.4735C15.5099 48.3019 22.499 56.3059 23.9792 59.4304C23.9841 59.4408 23.9863 59.4522 23.9856 59.4637C23.985 59.4751 23.9814 59.4862 23.9752 59.4959C23.9691 59.5056 23.9606 59.5136 23.9506 59.5191C23.9405 59.5246 23.9292 59.5275 23.9178 59.5274ZM40.2506 59.0244C40.2399 59.0244 40.2295 59.0219 40.22 59.0171C40.2105 59.0123 40.2022 59.0054 40.1959 58.9969C40.1896 58.9883 40.1854 58.9784 40.1836 58.9679C40.1818 58.9575 40.1825 58.9467 40.1857 58.9366C41.2308 55.5401 47.2994 49.5109 47.9758 48.8467L42.2931 45.1495C42.2834 45.1432 42.2755 45.1345 42.2701 45.1242C42.2647 45.1139 42.262 45.1025 42.2623 45.0909C42.2626 45.0793 42.2659 45.068 42.2718 45.058C42.2778 45.0481 42.2861 45.0398 42.2962 45.034L48.1885 41.6372C48.2041 41.6283 48.2226 41.6259 48.24 41.6306C48.2573 41.6352 48.2722 41.6466 48.2812 41.6621C48.2857 41.6699 48.2886 41.6784 48.2897 41.6872C48.2909 41.696 48.2903 41.705 48.288 41.7136C48.2857 41.7222 48.2817 41.7303 48.2763 41.7373C48.2709 41.7444 48.2641 41.7503 48.2564 41.7548L42.46 45.0963L48.1208 48.7792C48.1293 48.7847 48.1365 48.7921 48.1418 48.8008C48.1471 48.8095 48.1504 48.8193 48.1513 48.8295C48.1523 48.8396 48.151 48.8499 48.1475 48.8594C48.144 48.869 48.1384 48.8777 48.131 48.8848C48.064 48.9497 41.4068 55.4298 40.3154 58.9765C40.3111 58.9904 40.3025 59.0025 40.2908 59.0111C40.2792 59.0197 40.2651 59.0244 40.2506 59.0244Z" fill="#331510"/>
<path d="M16.4917 20.7317C16.4374 20.118 16.5078 19.4837 16.7698 18.9261C17.0317 18.3684 17.4976 17.8941 18.0798 17.6922C18.3708 17.5912 18.7006 17.5617 18.982 17.687C19.2638 17.8123 19.4605 18.0739 19.6124 18.3423C20.1111 19.2234 20.2521 20.257 20.3554 21.2642C20.4507 22.1942 20.6882 24.9146 19.0804 24.493C17.5954 24.1036 16.6147 22.1208 16.4917 20.7317ZM44.5322 20.593C44.5865 19.9794 44.5161 19.345 44.2542 18.7875C43.9922 18.2298 43.5263 17.7554 42.9442 17.5535C42.6531 17.4525 42.3234 17.4231 42.0419 17.5483C41.7601 17.6736 41.5634 17.9352 41.4116 18.2036C40.9128 19.0848 40.7719 20.1183 40.6686 21.1255C40.5733 22.0555 40.3358 24.7759 41.9436 24.3543C43.4286 23.9651 44.4093 21.9821 44.5322 20.593Z" fill="#FF8476"/>
<path d="M43.4001 16.7836L43.3374 17.1432L43.3033 17.3087L42.543 21.5092L42.1302 23.7957L42.1145 23.881C42.0947 24.0332 42.0721 24.185 42.0465 24.3363C41.8323 25.6346 41.4456 27.3133 41.1948 28.4099C41.1921 28.4151 41.1921 28.4202 41.1896 28.4254C40.701 30.5231 38.684 31.8887 36.1392 32.6698C36.0503 32.6983 35.959 32.7242 35.8675 32.7449C33.7119 33.3682 31.209 33.5829 28.9333 33.4794C28.4217 33.4577 27.9111 33.4181 27.4023 33.3605H27.3996C25.1526 33.107 23.3028 32.525 22.5137 31.718C21.9232 31.1154 21.4242 30.0291 21.0036 28.697C20.7659 27.947 20.5542 27.1193 20.3636 26.2632V26.2606L20.2903 25.9218C20.272 25.9269 20.259 25.9322 20.2407 25.9373L20.1545 25.332L19.9089 23.6068L19.2348 18.8865C19.2343 18.8726 19.2325 18.8587 19.2294 18.8451C19.2112 18.6536 19.1929 18.47 19.1773 18.2942C19.0649 17.1769 19.0179 16.4656 19.0179 16.4656L19.0571 16.4604C18.9944 16.0595 18.9499 15.6508 18.9264 15.2344C18.6391 10.2244 21.4451 5.74725 25.7039 3.62378C25.8566 3.54579 26.0117 3.47249 26.1689 3.40398V3.40131C27.556 2.78278 29.0445 2.42338 30.561 2.34091C32.1502 2.24936 33.7423 2.46359 35.2508 2.97199C35.3135 2.99525 35.3762 3.01595 35.439 3.04187C39.7082 4.56272 42.9219 8.35454 43.5097 13.0205L43.5411 13.0153C43.5411 13.0153 43.5411 13.0904 43.5359 13.2351C43.5619 13.4421 43.5777 13.6489 43.5907 13.8532C43.6465 14.8341 43.5825 15.8182 43.4001 16.7836Z" fill="#FF8476"/>
<path d="M25.9108 20.1682C25.9393 19.4832 25.4124 18.905 24.734 18.8768C24.0556 18.8485 23.4825 19.3809 23.454 20.0659C23.4255 20.7509 23.9523 21.329 24.6307 21.3573C25.3092 21.3855 25.8823 20.8532 25.9108 20.1682Z" fill="#331510"/>
<path d="M36.8389 19.7505C36.8101 20.4354 36.2368 20.9677 35.5584 20.9391C34.88 20.9107 34.3533 20.3323 34.3821 19.6473C34.4108 18.9623 34.9841 18.4302 35.6626 18.4586C36.341 18.4872 36.8677 19.0655 36.8389 19.7505ZM22.3367 17.2852C22.3903 17.4909 22.5459 17.6768 22.7625 17.7519C22.9508 17.817 23.163 17.7958 23.3639 17.7636C23.8557 17.6846 24.3358 17.5448 24.7931 17.3474C25.0645 17.2299 25.3317 17.0881 25.527 16.8794C26.3527 15.997 24.9827 15.2407 24.0863 15.408C23.3015 15.5544 22.1313 16.4974 22.3367 17.2852ZM37.857 16.4492C37.8305 16.6585 37.701 16.8614 37.4973 16.9627C37.3204 17.0509 37.1088 17.0571 36.9069 17.051C36.4127 17.0361 35.9223 16.9597 35.447 16.8236C35.1649 16.7426 34.8837 16.6371 34.6649 16.4565C33.7395 15.6932 34.9916 14.7742 35.8953 14.8245C36.6865 14.8686 37.9587 15.6476 37.857 16.4492ZM30.509 26.8894C30.3112 26.8894 30.1128 26.8634 29.9181 26.809C29.478 26.6864 29.1268 26.435 28.9289 26.1006C28.9224 26.0896 28.9182 26.0774 28.9164 26.0647C28.9146 26.0521 28.9153 26.0391 28.9185 26.0267C28.9217 26.0143 28.9273 26.0027 28.935 25.9924C28.9427 25.9822 28.9523 25.9736 28.9633 25.9671C28.9744 25.9606 28.9866 25.9563 28.9993 25.9545C29.0119 25.9527 29.0248 25.9534 29.0373 25.9566C29.0497 25.9598 29.0613 25.9654 29.0715 25.9731C29.0818 25.9808 29.0904 25.9904 29.0969 26.0015C29.2689 26.292 29.5793 26.512 29.9706 26.621C30.8775 26.8727 31.8796 26.4574 32.4073 25.6094C32.4211 25.5875 32.4429 25.5719 32.4681 25.5661C32.4933 25.5602 32.5198 25.5645 32.5418 25.5781C32.5637 25.5918 32.5794 25.6136 32.5852 25.6388C32.5911 25.664 32.5868 25.6905 32.5731 25.7125C32.1126 26.4528 31.3173 26.8894 30.509 26.8894ZM30.0499 24.6567C29.8054 24.6567 29.5608 24.5788 29.3673 24.4249C29.327 24.3922 29.2879 24.358 29.2501 24.3223C29.1587 24.2386 29.0721 24.1593 28.9688 24.1346C28.9094 24.1204 28.8425 24.1243 28.7716 24.129C28.6755 24.1349 28.5762 24.1409 28.4759 24.1049C28.1682 23.9946 28.1735 23.6361 28.1776 23.3484C28.1783 23.3071 28.1788 23.2663 28.1786 23.2273C28.1661 21.5238 28.5386 19.9662 29.0664 17.9516C29.0728 17.9277 29.0883 17.9072 29.1097 17.8947C29.131 17.8822 29.1564 17.8786 29.1804 17.8847C29.2301 17.898 29.2599 17.9488 29.2468 17.9987C28.7229 19.9993 28.353 21.5454 28.3652 23.2261C28.3654 23.2663 28.365 23.3084 28.3642 23.3511C28.3597 23.6513 28.3698 23.8687 28.539 23.9291C28.6032 23.9524 28.6797 23.9474 28.7604 23.9427C28.8415 23.9377 28.9256 23.9327 29.0118 23.9532C29.1624 23.9887 29.2713 24.0885 29.3763 24.1846C29.4117 24.2171 29.4469 24.2495 29.4836 24.2789C29.7791 24.5139 30.2382 24.5324 30.5516 24.3223C30.6409 24.2625 30.7207 24.1864 30.8052 24.1062C30.9466 23.972 31.0927 23.8331 31.2898 23.7702C31.3879 23.7386 31.496 23.7248 31.6005 23.7115C31.8431 23.6805 31.9936 23.6519 32.0394 23.5177C32.0433 23.5061 32.0494 23.4953 32.0575 23.4861C32.0656 23.4768 32.0754 23.4693 32.0864 23.4639C32.0974 23.4585 32.1094 23.4554 32.1217 23.4547C32.1339 23.454 32.1462 23.4557 32.1578 23.4598C32.1693 23.4638 32.18 23.4699 32.1892 23.478C32.1985 23.4861 32.206 23.4959 32.2114 23.5069C32.2168 23.5179 32.22 23.5298 32.2208 23.5421C32.2216 23.5543 32.2199 23.5665 32.216 23.5781C32.1295 23.8321 31.861 23.8661 31.6243 23.8966C31.5281 23.9089 31.4286 23.9216 31.3467 23.9476C31.1904 23.9978 31.0657 24.1162 30.934 24.2414C30.8475 24.3238 30.7579 24.4089 30.6556 24.4773C30.4762 24.5977 30.263 24.6567 30.0499 24.6567ZM43.1091 17.5982L42.0091 22.0848L41.0908 15.6762L43.1091 17.5982ZM17.9072 18.5658L19.4785 22.91L19.7095 16.44L17.9072 18.5658Z" fill="#331510"/>
<path d="M44.5333 20.1781C44.5333 20.1781 43.8545 19.2224 42.4644 18.0658C42.4291 18.0358 42.3912 18.006 42.3531 17.9735C41.2563 17.0775 39.7358 16.0702 37.7837 15.3019C37.7413 15.2851 37.6988 15.2689 37.6561 15.2531C36.4723 14.797 35.1311 14.4277 33.6297 14.224C33.5862 14.2159 33.54 14.2105 33.4939 14.205C32.063 14.0205 30.4883 13.9824 28.767 14.1589C28.7209 14.1615 28.6747 14.167 28.6286 14.1724C28.6205 14.1724 28.6122 14.1751 28.6041 14.1751C27.176 14.3299 25.9162 14.5851 24.8112 14.9109C24.7651 14.9218 24.7216 14.9354 24.6781 14.949C22.9188 15.4784 21.5477 16.1816 20.4834 16.9472C20.4453 16.9743 20.4073 17.0015 20.3721 17.0287C19.0905 17.9708 18.2652 18.9917 17.7357 19.8741C17.7058 19.9202 17.6787 19.9664 17.6542 20.0125C16.9511 21.2316 16.8207 22.1465 16.8207 22.1465C16.8207 22.1465 14.8115 18.4052 14.6703 15.9074C14.5807 14.311 15.6559 13.1136 16.4405 12.4566C16.5779 12.342 16.7201 12.2333 16.8668 12.1308C17.008 12.0303 17.1165 11.9598 17.179 11.9245C17.217 11.9 17.236 11.8892 17.236 11.8892C17.2415 11.8593 17.2469 11.8295 17.2524 11.797C17.684 9.39409 21.5177 1.62915 30.7542 1.62915C39.5565 1.62915 43.3304 9.41589 43.7484 10.3417L43.7512 10.3444C43.7729 10.4015 43.7864 10.4312 43.7864 10.4312C43.7864 10.4312 43.8109 10.4286 43.8544 10.4367C44.0905 10.4721 44.897 10.7544 45.6572 12.8586C46.5587 15.3535 44.5333 20.1781 44.5333 20.1781Z" fill="#A65236"/>
<g opacity="0.49">
<path d="M17.2372 11.9559C17.2226 11.956 17.2084 11.9514 17.1966 11.9427C17.1848 11.9341 17.1762 11.9219 17.1719 11.9079C17.1676 11.8939 17.168 11.8789 17.1729 11.8652C17.1779 11.8514 17.1871 11.8396 17.1993 11.8315C17.2441 11.8015 21.7712 8.83599 30.1045 8.46977C38.434 8.10391 43.7607 10.3475 43.8134 10.37C43.8216 10.3735 43.829 10.3786 43.8353 10.385C43.8415 10.3914 43.8464 10.399 43.8497 10.4072C43.853 10.4155 43.8546 10.4244 43.8545 10.4333C43.8543 10.4422 43.8525 10.451 43.8489 10.4592C43.8417 10.4756 43.8283 10.4885 43.8116 10.4952C43.7949 10.5018 43.7763 10.5016 43.7598 10.4947C43.7072 10.4721 38.408 8.24124 30.1102 8.60553C21.8178 8.96981 17.3191 11.9147 17.2745 11.9444C17.2636 11.9519 17.2506 11.9559 17.2372 11.9559Z" fill="#FADED3"/>
</g>
<g opacity="0.49">
<path d="M17.7363 19.8742C17.7064 19.9203 17.6792 19.9665 17.6548 20.0126C16.615 18.0388 15.7379 15.7962 16.0881 13.5426C16.1424 13.2033 16.2429 12.8015 16.4412 12.4566C16.5959 12.1878 16.805 11.9516 17.0927 11.8077C17.109 11.7997 17.1277 11.7983 17.1449 11.8039C17.1622 11.8095 17.1765 11.8216 17.185 11.8376C17.1877 11.8404 17.1877 11.843 17.1877 11.8457C17.1958 11.8702 17.1903 11.8973 17.1741 11.9109C17.1687 11.9218 17.1632 11.9272 17.1551 11.9299C17.0499 11.9825 16.953 12.0502 16.8673 12.1308C16.4682 12.4974 16.2945 13.0892 16.2211 13.5643C15.8819 15.7499 16.7208 17.9383 17.7363 19.8742Z" fill="#FADED3"/>
</g>
<g opacity="0.49">
<path d="M20.4838 16.9472C20.4457 16.9743 20.4077 17.0014 20.3725 17.0287C19.7371 15.568 19.1833 13.9118 19.148 12.166C19.1371 11.7642 19.1561 11.3053 19.3408 10.8954C19.3624 10.8519 19.3814 10.8085 19.4059 10.7651C19.4249 10.7325 19.4656 10.7189 19.4982 10.7379C19.5281 10.7543 19.5417 10.7869 19.5281 10.8167C19.5281 10.8221 19.5281 10.8248 19.5253 10.8302C19.2973 11.243 19.2728 11.7371 19.2837 12.1634C19.319 13.8764 19.862 15.5055 20.4838 16.9472Z" fill="#FADED3"/>
</g>
<g opacity="0.49">
<path d="M24.8116 14.911C24.7655 14.9219 24.722 14.9354 24.6785 14.949C24.1187 13.1796 23.7608 11.3525 23.6115 9.50263C23.606 9.45915 23.6034 9.4158 23.6006 9.37232V9.36421C23.6033 9.32884 23.6277 9.30172 23.663 9.29905C23.6761 9.29745 23.6895 9.29999 23.7012 9.30633C23.7129 9.31267 23.7223 9.32248 23.7281 9.33441C23.7336 9.34237 23.7365 9.35187 23.7362 9.36154L23.7443 9.47017C23.891 11.3186 24.2491 13.1441 24.8116 14.911Z" fill="#FADED3"/>
</g>
<g opacity="0.49">
<path d="M28.7668 14.1587C28.7207 14.1614 28.6745 14.1669 28.6284 14.1723C28.3785 12.3696 28.0733 10.5751 27.7134 8.79109C27.7058 8.7615 27.6995 8.7316 27.6944 8.70147C27.6916 8.68561 27.6945 8.66926 27.7025 8.65533C27.707 8.64679 27.7132 8.63926 27.7207 8.63318C27.7281 8.6271 27.7368 8.6226 27.746 8.61996C27.7578 8.61854 27.7698 8.61975 27.781 8.6235C27.7923 8.62725 27.8026 8.63344 27.8112 8.64164C27.8197 8.65064 27.8254 8.66198 27.8275 8.67422C27.8356 8.70679 27.8411 8.74204 27.8465 8.77474C28.2079 10.5596 28.5148 12.3551 28.7668 14.1587Z" fill="#FADED3"/>
</g>
<g opacity="0.49">
<path d="M33.6302 14.2241C33.5867 14.216 33.5406 14.2105 33.4944 14.2051C33.4613 12.3208 33.2971 10.441 33.003 8.57948C32.9975 8.55235 32.9949 8.52244 32.9894 8.49531C32.9878 8.48686 32.9879 8.47817 32.9898 8.46977C32.9917 8.46138 32.9952 8.45346 33.0003 8.4465C33.0111 8.43259 33.0265 8.42298 33.0438 8.41937C33.0709 8.41659 33.098 8.42749 33.1116 8.44917C33.1171 8.45462 33.1197 8.46552 33.1225 8.47363C33.1279 8.50887 33.1334 8.5469 33.1389 8.58226C33.4355 10.4489 33.5996 12.3343 33.6302 14.2241Z" fill="#FADED3"/>
</g>
<g opacity="0.49">
<path d="M37.7839 15.3018C37.7415 15.2851 37.699 15.2688 37.6562 15.253C38.1313 13.2058 38.1884 11.0664 37.8191 9.00031C37.8171 8.99154 37.8168 8.98244 37.8185 8.97358C37.8202 8.96473 37.8237 8.95632 37.8288 8.9489C37.8339 8.94148 37.8405 8.93522 37.8482 8.93052C37.8559 8.92581 37.8645 8.92277 37.8734 8.92159C37.8821 8.91974 37.8912 8.91969 37.9 8.92145C37.9087 8.9232 37.917 8.92673 37.9244 8.9318C37.9318 8.93688 37.938 8.9434 37.9428 8.95097C37.9476 8.95855 37.9507 8.96701 37.9521 8.97585C37.9548 8.9922 37.9576 9.00576 37.9602 9.02199C38.3269 11.099 38.2646 13.2465 37.7839 15.3018Z" fill="#FADED3"/>
</g>
<g opacity="0.49">
<path d="M43.2165 14.9435C43.0807 16.0106 42.7984 17.0504 42.4644 18.0659C42.429 18.036 42.3911 18.0062 42.3531 17.9736C42.6762 16.9798 42.9476 15.9645 43.0807 14.9273C43.249 13.6186 43.2463 11.7127 42.2797 10.0539C42.2661 10.0321 42.2688 10.0078 42.2797 9.98596C42.2865 9.97652 42.2947 9.96825 42.3042 9.9615C42.3341 9.94248 42.3774 9.95338 42.3966 9.98596C42.4047 9.99952 42.4128 10.0131 42.4183 10.0267C43.3821 11.7072 43.3848 13.6268 43.2165 14.9435Z" fill="#FADED3"/>
</g>
</g>
<defs>
<clipPath id="clip0_643_478">
<rect width="62" height="62" fill="white"/>
</clipPath>
</defs>
</svg>
